# xmcd CD database file
#
# Track frame offsets:
#	150
#	13562
#	25012
#	36987
#	50187
#	61950
#	74112
#	86150
#	99580
#	110612
#	122925
#	137012
#	149475
#	161725
#	170660
#	181750
#	199575
#	210275
#	219362
#
# Disc length: 3098 seconds
#
# Revision: 0
# Processed by: cddbd v1.5.1PL0 Copyright (c) Steve Scherf et al.
# Submitted via: CDex 1.51
#
DISCID=1e0c1813
DTITLE=Gladys Knight and the Pips - Gladys Knight and the Pips
DYEAR=1900
DGENRE=Blues
TTITLE0=Queen of Tears
TTITLE1=Tell Her
TTITLE2=Stay Away
TTITLE3=Get a hold of yourself
TTITLE4=Either way I lose
TTITLE5=A Love Like Mine
TTITLE6=Who Knows
TTITLE7=It Hurts Me So Bad
TTITLE8=What Will Become of Me
TTITLE9=Why Don't You Love Me
TTITLE10=Giving Up
TTITLE11=Another Love
TTITLE12=Lovers Always Forgive
TTITLE13=If I Ever Fall In Love
TTITLE14=Linda
TTITLE15=To Whom It May Concern
TTITLE16=Bless The One
TTITLE17=Room In Your Heart
TTITLE18=Before Now After Then
EXTD=
EXTT0=
EXTT1=
EXTT2=
EXTT3=
EXTT4=
EXTT5=
EXTT6=
EXTT7=
EXTT8=
EXTT9=
EXTT10=
EXTT11=
EXTT12=
EXTT13=
EXTT14=
EXTT15=
EXTT16=
EXTT17=
EXTT18=
PLAYORDER=
